<svg width="1440" height="645" viewBox="0 0 1440 645" fill="none" xmlns="http://www.w3.org/2000/svg">
<g clip-path="url(#clip0_2_1302)">
<g opacity="0.8">
<path opacity="0.25" d="M68.3698 601.287C80.437 599.743 89.0196 588.307 87.5396 575.746C86.0595 563.184 75.0773 554.252 63.01 555.796C50.9428 557.34 42.3602 568.775 43.8403 581.337C45.3203 593.899 56.3026 602.831 68.3698 601.287Z" fill="#CFDAE6"/>
<path opacity="0.6" d="M6.27936 571.939C9.16965 571.57 11.2253 568.831 10.8708 565.822C10.5163 562.813 7.88591 560.674 4.99561 561.044C2.10532 561.414 0.0496452 564.152 0.404143 567.161C0.75864 570.17 3.38906 572.309 6.27936 571.939Z" fill="#CFDAE6"/>
<path opacity="0.45" fill-rule="evenodd" clip-rule="evenodd" d="M47.0556 640.205C52.8362 639.466 56.9475 633.988 56.2385 627.97C55.5295 621.953 50.2687 617.674 44.4881 618.414C38.7075 619.153 34.5962 624.631 35.3052 630.649C36.0142 636.666 41.275 640.945 47.0556 640.205Z" fill="#CFDAE6"/>
<path opacity="0.8" d="M66.4806 579.185L119.511 554.787" stroke="#CFDAE6" stroke-width="1.73913" stroke-linecap="round" stroke-linejoin="round"/>
<path opacity="0.7" d="M43.4584 575.054L7.453 567" stroke="#E0B4B7" stroke-width="0.702679" stroke-linecap="round" stroke-linejoin="round" stroke-dasharray="1.41 2.11"/>
<path opacity="0.8" d="M66.1731 579.597L50.265 619.612" stroke="#BACAD9" stroke-width="0.702679" stroke-linecap="round" stroke-linejoin="round" stroke-dasharray="1.41 2.11"/>
<g opacity="0.8">
<path opacity="0.45" d="M122.836 559.281C127.529 561.357 132.947 559.079 134.937 554.194C136.928 549.308 134.737 543.665 130.044 541.589C125.35 539.514 119.932 541.791 117.942 546.677C115.952 551.563 118.143 557.206 122.836 559.281Z" fill="#CFDAE6"/>
<path opacity="0.8" fill-rule="evenodd" clip-rule="evenodd" d="M117.942 546.677C115.952 551.563 118.143 557.206 122.836 559.281C127.529 561.357 132.947 559.079 134.937 554.194L117.942 546.677Z" fill="#CFDAE6"/>
</g>
</g>
<path opacity="0.25" d="M132.415 96.4608C148.604 94.9847 160.58 80.1043 159.163 63.2245C157.746 46.3447 143.473 33.8576 127.283 35.3337C111.094 36.8097 99.118 51.6901 100.535 68.5699C101.952 85.4497 116.225 97.9368 132.415 96.4608Z" fill="#CFDAE6"/>
<path opacity="0.3" d="M131.749 88.5368C143.742 87.4434 152.612 76.4209 151.563 63.9174C150.513 51.4138 139.94 42.1641 127.948 43.2575C115.956 44.3509 107.085 55.3734 108.135 67.877C109.185 80.3805 119.757 89.6302 131.749 88.5368Z" fill="#CFDAE6"/>
<path opacity="0.4" d="M292.448 191.378C305.64 190.176 315.398 178.051 314.243 164.297C313.088 150.543 301.458 140.368 288.267 141.571C275.075 142.774 265.318 154.899 266.472 168.652C267.627 182.406 279.257 192.581 292.448 191.378Z" stroke="#CFDAE6"/>
<path opacity="0.5" d="M130.799 77.217C136.795 76.6703 141.231 71.159 140.706 64.9073C140.181 58.6555 134.895 54.0306 128.899 54.5773C122.902 55.124 118.467 60.6353 118.992 66.8871C119.517 73.1388 124.803 77.7637 130.799 77.217Z" fill="#BACAD9"/>
<path fill-rule="evenodd" clip-rule="evenodd" d="M130.799 77.217L128.899 54.577C122.902 55.1238 118.467 60.6351 118.992 66.8869C119.517 73.1388 124.803 77.7637 130.799 77.217Z" fill="#BACAD9"/>
<g opacity="0.45">
<path opacity="0.45" d="M290.928 173.267C294.526 172.938 297.187 169.632 296.872 165.881C296.557 162.13 293.386 159.355 289.788 159.683C286.19 160.011 283.529 163.318 283.844 167.069C284.158 170.82 287.33 173.595 290.928 173.267Z" fill="#E6A1A6"/>
<path opacity="0.45" fill-rule="evenodd" clip-rule="evenodd" d="M290.928 173.267C287.33 173.595 284.158 170.82 283.844 167.069C283.529 163.318 286.19 160.011 289.788 159.683L290.928 173.267Z" fill="#E6A1A6"/>
</g>
<path d="M330.175 165.127C331.074 165.045 331.739 164.218 331.661 163.28C331.582 162.342 330.789 161.649 329.889 161.731C328.99 161.813 328.325 162.639 328.403 163.577C328.482 164.515 329.275 165.209 330.175 165.127Z" fill="#CFDAE6"/>
<path opacity="0.35" d="M294.322 207.178C295.222 207.096 295.887 206.269 295.808 205.331C295.73 204.393 294.937 203.7 294.037 203.782C293.138 203.864 292.473 204.69 292.551 205.628C292.63 206.566 293.423 207.26 294.322 207.178Z" fill="#E0B4B7"/>
<path opacity="0.35" d="M288.496 131.283C289.696 131.174 290.583 130.072 290.478 128.821C290.373 127.571 289.316 126.646 288.116 126.755C286.917 126.865 286.03 127.967 286.135 129.217C286.24 130.468 287.297 131.393 288.496 131.283Z" fill="#E0B4B7"/>
<path opacity="0.8" d="M129.802 66.779L281.972 161.665" stroke="#CFDAE6"/>
<g opacity="0.8">
<path opacity="0.8" d="M1081.51 37.4606C1087.64 36.2191 1091.63 29.9869 1090.43 23.5404C1089.23 17.094 1083.29 12.8746 1077.16 14.116C1071.03 15.3575 1067.04 21.5898 1068.24 28.0362C1069.44 34.4826 1075.38 38.7021 1081.51 37.4606Z" stroke="#CFDAE6" stroke-width="0.941176"/>
<g opacity="0.8">
<path opacity="0.45" d="M1080.95 34.637C1085.6 33.6963 1088.62 28.9749 1087.71 24.0914C1086.8 19.2079 1082.3 16.0116 1077.65 16.9523C1073.01 17.8929 1069.99 22.6143 1070.9 27.4978C1071.81 32.3813 1076.31 35.5776 1080.95 34.637Z" fill="#BACAD9"/>
<path opacity="0.8" fill-rule="evenodd" clip-rule="evenodd" d="M1080.95 34.6377C1085.6 33.697 1088.62 28.9754 1087.71 24.0917C1086.8 19.2081 1082.3 16.0116 1077.65 16.9523L1080.95 34.6377Z" fill="#BACAD9"/>
</g>
<path opacity="0.8" d="M1068.87 20.1946L1036.29 5.29892" stroke="#CFDAE6" stroke-width="0.941176"/>
<path opacity="0.8" d="M1034.21 7.6709C1036 7.30881 1037.16 5.49107 1036.81 3.61086C1036.46 1.73065 1034.73 0.499978 1032.94 0.862072C1031.15 1.22417 1029.99 3.04191 1030.34 4.92212C1030.69 6.80232 1032.42 8.033 1034.21 7.6709Z" stroke="#CFDAE6" stroke-width="0.941176"/>
<path opacity="0.8" d="M1044.82 67.1014C1046.35 66.791 1047.35 65.233 1047.05 63.6214C1046.75 62.0098 1045.26 60.9549 1043.73 61.2653C1042.2 61.5756 1041.2 63.1337 1041.5 64.7453C1041.8 66.3569 1043.28 67.4118 1044.82 67.1014Z" fill="#F7E1AD"/>
<path opacity="0.8" d="M1071.63 35.1698L1046.25 62.2899" stroke="#CFDAE6" stroke-width="0.941176"/>
</g>
<g opacity="0.33">
<g opacity="0.33">
<path opacity="0.45" d="M1304.22 444.613C1303.66 437.855 1297.94 432.857 1291.45 433.448C1284.96 434.04 1280.16 439.998 1280.73 446.756C1281.3 453.514 1287.02 458.512 1293.5 457.921C1299.99 457.329 1304.79 451.371 1304.22 444.613Z" fill="#BACAD9"/>
<path opacity="0.33" fill-rule="evenodd" clip-rule="evenodd" d="M1293.5 457.921C1299.99 457.33 1304.79 451.371 1304.22 444.614C1303.66 437.856 1297.94 432.857 1291.45 433.448L1293.5 457.921Z" fill="#BACAD9"/>
</g>
<path opacity="0.33" d="M1351.03 422.662C1354.24 422.072 1356.38 418.887 1355.82 415.547C1355.25 412.206 1352.19 409.976 1348.99 410.565C1345.78 411.154 1343.64 414.34 1344.2 417.68C1344.77 421.02 1347.83 423.251 1351.03 422.662Z" fill="#CFDAE6"/>
<path opacity="0.33" d="M1292.18 428.639L1291.21 352.689" stroke="#BACAD9" stroke-width="1.16667"/>
<path opacity="0.33" d="M1157.76 398.303L1277.78 440.724" stroke="#BACAD9" stroke-width="1.16667"/>
<path opacity="0.33" d="M1298.12 461.218L1348.52 570.91L1197.99 508.704L1279 454.607" stroke="#CFDAE6" stroke-width="1.16667"/>
<path opacity="0.6" d="M1310.36 436.989L1343.93 419.601" stroke="#E0B4B7" stroke-width="1.16667"/>
<path opacity="0.33" d="M1352.55 410.413L1377.71 356.643" stroke="#BACAD9" stroke-width="1.16667"/>
<path opacity="0.33" d="M1422.44 451.129L1355.75 418.68" stroke="#CFDAE6" stroke-width="1.16667"/>
<path opacity="0.33" d="M1293.02 352.243C1297.83 351.36 1301.05 346.581 1300.2 341.571C1299.35 336.56 1294.76 333.215 1289.95 334.099C1285.14 334.983 1281.93 339.761 1282.78 344.771C1283.63 349.782 1288.21 353.127 1293.02 352.243Z" fill="#C1D1E0"/>
<path opacity="0.33" d="M1199.71 515.321C1202.59 514.791 1204.52 511.924 1204.01 508.918C1203.5 505.911 1200.75 503.904 1197.87 504.434C1194.98 504.965 1193.05 507.832 1193.56 510.838C1194.07 513.844 1196.82 515.851 1199.71 515.321Z" fill="#C1D1E0"/>
<path opacity="0.33" d="M1149.87 404.736C1154.68 403.853 1157.89 399.074 1157.04 394.064C1156.19 389.053 1151.61 385.708 1146.8 386.592C1141.99 387.475 1138.78 392.254 1139.62 397.264C1140.47 402.275 1145.06 405.62 1149.87 404.736Z" fill="#D1DEED" fill-opacity="0.6"/>
<path opacity="0.33" d="M1382.8 355.708C1386.01 355.119 1388.15 351.933 1387.58 348.593C1387.02 345.252 1383.96 343.022 1380.75 343.611C1377.55 344.2 1375.41 347.386 1375.97 350.726C1376.54 354.067 1379.59 356.297 1382.8 355.708Z" fill="#D1DEED" fill-opacity="0.6"/>
<path opacity="0.33" d="M1350.29 577.463C1353.18 576.933 1355.11 574.066 1354.6 571.059C1354.09 568.053 1351.34 566.046 1348.45 566.576C1345.57 567.106 1343.64 569.973 1344.15 572.98C1344.66 575.986 1347.41 577.993 1350.29 577.463Z" fill="#E0B4B7"/>
</g>
</g>
<defs>
<clipPath id="clip0_2_1302">
<rect width="1441" height="645" fill="white"/>
</clipPath>
</defs>
</svg>
